<mxfile host="app.diagrams.net" modified="2022-03-09T08:52:03.520Z" agent="5.0 (Macintosh; Intel Mac OS X 10_14_6) AppleWebKit/537.36 (KHTML, like Gecko) Chrome/99.0.4844.51 Safari/537.36" etag="d2iPEsP1xGw14xkiEXPi" version="16.6.4" type="github">
  <diagram id="-XEGDAH83uH26y6G2ftp" name="Page-1">
    <mxGraphModel dx="1087" dy="651" grid="1" gridSize="10" guides="1" tooltips="1" connect="1" arrows="1" fold="1" page="1" pageScale="1" pageWidth="827" pageHeight="1169" math="0" shadow="0">
      <root>
        <mxCell id="0" />
        <mxCell id="1" parent="0" />
        <mxCell id="CakbC3GYAYJEHMvNo1hE-1" value="OS （Windows、UNIX/Linux）" style="points=[[0,0,0],[0.25,0,0],[0.5,0,0],[0.75,0,0],[1,0,0],[1,0.25,0],[1,0.5,0],[1,0.75,0],[1,1,0],[0.75,1,0],[0.5,1,0],[0.25,1,0],[0,1,0],[0,0.75,0],[0,0.5,0],[0,0.25,0]];absoluteArcSize=1;arcSize=2;html=1;strokeColor=none;shadow=0;dashed=0;fontSize=12;align=left;verticalAlign=middle;spacing=10;spacingTop=-4;fillColor=#97D077;" vertex="1" parent="1">
          <mxGeometry x="50" y="420" width="750" height="40" as="geometry" />
        </mxCell>
        <mxCell id="CakbC3GYAYJEHMvNo1hE-8" value="HTTP&amp;nbsp; &amp;amp; Reverse Proxy Server: Openresty" style="points=[[0,0,0],[0.25,0,0],[0.5,0,0],[0.75,0,0],[1,0,0],[1,0.25,0],[1,0.5,0],[1,0.75,0],[1,1,0],[0.75,1,0],[0.5,1,0],[0.25,1,0],[0,1,0],[0,0.75,0],[0,0.5,0],[0,0.25,0]];absoluteArcSize=1;arcSize=2;html=1;strokeColor=none;shadow=0;dashed=0;fontSize=12;align=left;verticalAlign=middle;spacing=10;spacingTop=-4;fillColor=#7EA6E0;" vertex="1" parent="1">
          <mxGeometry x="350" y="370" width="450" height="40" as="geometry" />
        </mxCell>
        <mxCell id="CakbC3GYAYJEHMvNo1hE-20" value="" style="shadow=0;strokeWidth=1;rounded=0;absoluteArcSize=1;arcSize=2;glass=0;sketch=0;fontSize=10;strokeColor=#666666;" vertex="1" parent="1">
          <mxGeometry x="90" y="370" width="100" height="40" as="geometry" />
        </mxCell>
        <mxCell id="CakbC3GYAYJEHMvNo1hE-21" value="&lt;font style=&quot;font-size: 10px&quot;&gt;&lt;font color=&quot;#000000&quot; style=&quot;font-size: 10px&quot;&gt;ORACLE&lt;/font&gt;&lt;br&gt;&lt;font color=&quot;#b3b3b3&quot;&gt;19c&lt;/font&gt;&lt;/font&gt;" style="sketch=0;dashed=0;connectable=0;html=1;strokeColor=none;shape=mxgraph.gcp2.hexIcon;prIcon=cloud_sql;part=1;labelPosition=right;verticalLabelPosition=middle;align=left;verticalAlign=middle;spacingLeft=5;fontSize=12;fillColor=#5184F3;" vertex="1" parent="CakbC3GYAYJEHMvNo1hE-20">
          <mxGeometry y="0.5" width="44" height="39" relative="1" as="geometry">
            <mxPoint y="-19" as="offset" />
          </mxGeometry>
        </mxCell>
        <mxCell id="CakbC3GYAYJEHMvNo1hE-22" value="" style="shadow=0;strokeWidth=1;rounded=0;absoluteArcSize=1;arcSize=2;glass=0;sketch=0;fontSize=10;strokeColor=#666666;" vertex="1" parent="1">
          <mxGeometry x="204" y="370" width="136" height="40" as="geometry" />
        </mxCell>
        <mxCell id="CakbC3GYAYJEHMvNo1hE-23" value="&lt;font style=&quot;font-size: 10px&quot;&gt;&lt;font color=&quot;#000000&quot; style=&quot;font-size: 10px&quot;&gt;REDIS&lt;/font&gt;&lt;br&gt;&lt;font color=&quot;#b3b3b3&quot;&gt;Memory Storage&lt;/font&gt;&lt;/font&gt;" style="sketch=0;dashed=0;connectable=0;html=1;strokeColor=none;shape=mxgraph.gcp2.hexIcon;prIcon=cloud_storage;part=1;labelPosition=right;verticalLabelPosition=middle;align=left;verticalAlign=middle;spacingLeft=5;fontSize=12;rounded=0;shadow=0;glass=0;fillColor=#5184F3;" vertex="1" parent="CakbC3GYAYJEHMvNo1hE-22">
          <mxGeometry y="0.5" width="44" height="39" relative="1" as="geometry">
            <mxPoint x="1" y="-19" as="offset" />
          </mxGeometry>
        </mxCell>
        <mxCell id="CakbC3GYAYJEHMvNo1hE-45" value="" style="strokeColor=#666666;shadow=0;strokeWidth=1;rounded=0;absoluteArcSize=1;arcSize=2;sketch=0;fillColor=#FFFFFF;" vertex="1" parent="1">
          <mxGeometry x="680" y="320" width="120" height="40" as="geometry" />
        </mxCell>
        <mxCell id="CakbC3GYAYJEHMvNo1hE-46" value="&lt;font style=&quot;font-size: 10px&quot;&gt;&lt;font color=&quot;#000000&quot; style=&quot;font-size: 10px&quot;&gt;IBI&lt;/font&gt;&lt;br&gt;Report Server&lt;/font&gt;" style="sketch=0;dashed=0;connectable=0;html=1;fillColor=#5184F3;strokeColor=none;shape=mxgraph.gcp2.hexIcon;prIcon=bigquery;part=1;labelPosition=right;verticalLabelPosition=middle;align=left;verticalAlign=middle;spacingLeft=5;fontColor=#999999;fontSize=12;rounded=0;" vertex="1" parent="CakbC3GYAYJEHMvNo1hE-45">
          <mxGeometry y="0.5" width="44" height="39" relative="1" as="geometry">
            <mxPoint y="-19" as="offset" />
          </mxGeometry>
        </mxCell>
        <mxCell id="CakbC3GYAYJEHMvNo1hE-50" value="" style="strokeColor=#666666;shadow=0;strokeWidth=1;rounded=0;absoluteArcSize=1;arcSize=2;sketch=0;fontSize=10;fontColor=#B3B3B3;fillColor=#FFFFFF;" vertex="1" parent="1">
          <mxGeometry x="540" y="320" width="130" height="40" as="geometry" />
        </mxCell>
        <mxCell id="CakbC3GYAYJEHMvNo1hE-51" value="&lt;font style=&quot;font-size: 10px&quot;&gt;&lt;font color=&quot;#000000&quot; style=&quot;font-size: 10px&quot;&gt;MINIO&lt;/font&gt;&lt;br&gt;Object Storage&lt;br&gt;&lt;/font&gt;" style="sketch=0;dashed=0;connectable=0;html=1;fillColor=#5184F3;strokeColor=none;shape=mxgraph.gcp2.hexIcon;prIcon=cloud_filestore;part=1;labelPosition=right;verticalLabelPosition=middle;align=left;verticalAlign=middle;spacingLeft=5;fontColor=#999999;fontSize=12;rounded=0;shadow=0;" vertex="1" parent="CakbC3GYAYJEHMvNo1hE-50">
          <mxGeometry y="0.5" width="44" height="39" relative="1" as="geometry">
            <mxPoint x="1" y="-19" as="offset" />
          </mxGeometry>
        </mxCell>
      </root>
    </mxGraphModel>
  </diagram>
</mxfile>
